<svg xmlns="http://www.w3.org/2000/svg" viewBox="0 0 48 48">
	<defs>
		<style>
			.cls-1 {
			fill: #fff;
			opacity: 0;
			}

			.cls-2 {
			fill: none;
			stroke: #656a83;
			stroke-miterlimit: 10;
			stroke-width: 2px;
			}

			.cls-3 {
			fill: #656a83;
			}

			.cls-4 {
			fill: #a2acc2;
			}
		</style>
	</defs>
	<g id="home_main_icon_fao" transform="translate(-72 -208)">
		<rect id="矩形_44" data-name="矩形 44" class="cls-1" width="48" height="48" transform="translate(72 208)"/>
		<g id="组_4" data-name="组 4" transform="translate(6.596 10.405)">
			<g id="组_3" data-name="组 3" transform="translate(69 202.2)">
				<path id="路径_4" data-name="路径 4" class="cls-2" d="M484.856-27a17.066,17.066,0,0,1,11.933,16.426" transform="translate(-459.358 32.894)"/>
				<path id="路径_5" data-name="路径 5" class="cls-2" d="M446.46,100.732a16.433,16.433,0,0,1-19.81,2.385" transform="translate(-414.308 -65.968)"/>
				<path id="路径_6" data-name="路径 6" class="cls-2" d="M390.1-1.294h-.28A17.26,17.26,0,0,1,397.75-20.03" transform="translate(-385.456 27.5)"/>
				<circle id="椭圆_7" data-name="椭圆 7" class="cls-3" cx="5.51" cy="5.51" r="5.51" transform="translate(15.59 16.839)"/>
				<circle id="椭圆_4" data-name="椭圆 4" class="cls-4" cx="5.51" cy="5.51" r="5.51" transform="translate(15.918 0)"/>
				<circle id="椭圆_5" data-name="椭圆 5" class="cls-4" cx="5.51" cy="5.51" r="5.51" transform="translate(29.386 26.938)"/>
				<circle id="椭圆_6" data-name="椭圆 6" class="cls-4" cx="5.51" cy="5.51" r="5.51" transform="translate(0 24.489)"/>
			</g>
		</g>
	</g>
</svg>